<svg xmlns="http://www.w3.org/2000/svg" xmlns:xlink="http://www.w3.org/1999/xlink" width="136" height="93" viewBox="0 0 136 93"><defs><path id="a" d="M10.093 31.134c.06-.03.127-.056.19-.091 3.037-1.527 4.294-5.293 2.804-8.407-1.174-2.445-.8-6.044-.595-7.143.32-1.004.942-2.525 1.849-2.82 2.062-.699 6.63 1.512 8.995 3.308 2.717 2.06 6.55 1.49 8.574-1.285 2.02-2.767 1.48-6.69-1.22-8.769-1.105-.852-11.06-8.232-20.144-5.2-3.292 1.095-7.663 3.96-9.86 11.336l-.1.389c-.2.878-1.858 8.734 1.491 15.723 1.461 3.048 5.014 4.34 8.016 2.96"/><path id="c" d="M24.462 16.683a3.236 3.236 0 0 1-1.12-.778c-1.607-1.715-3.439-3.708-5.88-3.677-2.684.036-5.565 1.846-7.635 3.507-2.662 2.146-6.485 1.635-8.545-1.138-2.057-2.77-1.59-6.751 1.058-8.91C4.753 3.722 7.522 2.131 10.374.992c6.507-2.598 12.615.192 17.32 4.998 1.632 1.668 4.396 5.053 3.715 7.693-.693 2.691-4.707 3.934-6.947 3"/></defs><g fill="none" fill-rule="evenodd"><g transform="matrix(1 0 0 -1 79.667 90.573)"><mask id="b" fill="#fff"><use xlink:href="#a"/></mask><use xlink:href="#a" fill="#FEFEFE" stroke="#000" stroke-width="1.5"/><path fill="#64331A" d="M20.761 12.835c.58-.258 1.188-.275 1.772-.181a3.105 3.105 0 0 1-1.728-1.608 3.082 3.082 0 0 1 1.566-4.09c.74-.323 1.52-.32 2.231-.1-.64-.296-1.208-.79-1.52-1.486-.714-1.552-.007-3.382 1.572-4.078.094-.045.203-.055.312-.073 3.8 1.754 6.505 3.696 7.109 4.144a7.567 7.567 0 0 1 1.537 10.664c-2.55 3.373-7.382 4.068-10.806 1.562-1.023-.748-2.38-1.55-3.816-2.255.11-1.056.725-2.032 1.771-2.5" mask="url(#b)"/></g><g transform="matrix(1 0 0 -1 36.838 88.99)"><mask id="d" fill="#fff"><use xlink:href="#c"/></mask><use xlink:href="#c" fill="#FEFEFE" stroke="#000" stroke-width="1.5"/><path fill="#64331A" d="M13.292 11.534c-.522-.241-1.052-.227-1.56-.106.636-.318 1.171-.9 1.45-1.696.563-1.605-.12-3.407-1.53-4.05-.655-.295-1.341-.257-1.957-.004a2.92 2.92 0 0 0 1.276-1.56C11.534 2.526 10.85.713 9.443.081 9.327.025 9.213.023 9.095 0 4.02 3.02-2.051 6.327-1.116 14.134c1.289 10.768 12.04 2.422 16.065-.106-.127-1.084-.708-2.065-1.657-2.494" mask="url(#d)"/></g><path fill="#00A2F6" stroke="#000" stroke-width="1.5" d="M47.81 68.94c7.272 5.871 17.137 8.187 26.244 7.747 6.257-.303 12.607-.845 18.553-3.007 6.484-2.359 10.523-6.654 14.88-11.962.33-.404.688-.79 1.05-1.173l.569-.594c1.21-1.263 2.386-2.558 3.018-4.218.868-2.278.919-4.927.952-7.516.017-1.27.032-2.522.157-3.7.132-1.24.302-2.445.468-3.63.56-3.978 1.075-7.74.127-11.854C110.848 16.093 100.85 4 90.63-3.843c.135-.959.367-1.761.61-2.58l.152-.51c.29-.975.561-1.927.627-2.611.035-.367.013-.676-.056-.91-.779-.734-1.09-.929-1.3-1.081.199-.714 1.033-.97 1.75-1.284l.511-.222c1.499-.645 2.818-1.347 3.117-1.974-.521-1.74-1.023-2.002-1.79-2.273-3.53-1.251-5.174-3.304-6.932-5.464-1.532-1.882-3.141-3.845-5.931-5.531-2.494-1.507-6.536-3.02-10.678-4.563-4.719-1.758-9.573-3.552-12.277-5.462-.866-.612-2.454-1.555-4.297-2.648-3.94-2.336-9.113-5.361-10.538-7.246-.718-.951-3.229-1.63-5.853-2.214l-.255-.056-.512-.11c-1.962-.414-3.88-.785-4.328-1.563-.203-.354-.528-.616-.984-.766-.347-.113-.785-.16-1.297-.129-.944.056-2.185.373-3.541.853-3.616 1.28-8.097 3.71-9.817 4.961-.702.522-1.028.769-1.371.977-3.49 2.134-6.419 4.694-8.842 8.075-4.715 6.581-7.277 14.89-7.808 23.007-.65 9.999 3.052 19.05 9.223 26.608 2.544 3.114 5.494 5.852 8.486 8.522l.774.69.387.343.774.686c6.824 6.057 13.482 12.094 15.258 22.067.801 4.493 1.876 7.918 3.79 12.185 2.294 5.113 5.833 9.536 10.127 13.005z"/><path fill="#FEFEFE" stroke="#000" stroke-width="1.5" d="M78.892 74.365s7.69-.201 9.608-.572c5.228-1.011 10.367-2.95 14.71-6.16 4.735-3.5 7.648-8.066 9.614-13.628.165-.463 2.62-7.26 2.297-7.272 3.012.116 5.63-1.829 7.299-4.282 2.506-3.685 3.77-8.715 3.152-13.178-.428-3.094-2.458-5.293-3.25-8.216-.87-3.198-2.664-5.914-5.054-8.16-4.571-4.299-10.758-5.624-16.767-5.883-8.498-.364-16.964.488-25.365 1.727-7.509 1.108-15.11 2.882-20.957 8.181-6.694 6.065-10.876 14.78-10.876 24.016 0 18.418 15.92 33.354 35.589 33.427"/><path fill="#FFBDB9" d="M119.572 42.825c-1.918 1.73-4.524 2.352-6.313-.426-2.13-3.305-1.184-8.064-.026-11.565.888-2.684 4.648-7.878 7.716-5.36 3.732 3.066 2.307 10.874.63 14.61a8.42 8.42 0 0 1-2.007 2.741"/><path fill="#231916" d="M103.092 35.617c-.104-1.123-1.08-1.958-2.194-1.87a1.995 1.995 0 0 0-1.829 2.185 2.063 2.063 0 0 0 2.203 1.865 1.99 1.99 0 0 0 1.82-2.18m2.659 2.195c1.107-.109 2.082.842 2.176 2.124l.015.214c.094 1.282-.726 2.411-1.835 2.52-1.107.108-2.082-.843-2.175-2.125l-.016-.214c-.093-1.282.727-2.41 1.835-2.52m-16.97 1.626c1.107-.109 2.081.842 2.175 2.124l.017.214c.092 1.282-.728 2.411-1.836 2.52-1.107.108-2.081-.843-2.175-2.125l-.015-.214c-.094-1.282.726-2.41 1.834-2.52m2.707-13.21c3.058-.251 5.766 1.216 7.173 2.166 1.168-1.505 2.564-2.408 4.161-2.687 2.95-.513 5.417 1.365 5.52 1.445.48.374.555 1.05.168 1.512-.39.46-1.09.532-1.57.163-.037-.028-1.815-1.344-3.733-1.002-1.255.225-2.37 1.125-3.317 2.674-.17.279-.462.47-.793.518a1.135 1.135 0 0 1-.921-.266c-.031-.026-3.213-2.746-6.67-2.364-1.868.206-3.538 1.307-4.956 3.268-.353.489-1.05.61-1.555.27a1.05 1.05 0 0 1-.279-1.498c1.805-2.496 4.01-3.903 6.55-4.177.074-.01.15-.016.222-.022"/><path fill="#FFBDB9" d="M61.08 34.237c0-5.657 4.528-10.246 10.103-10.246 5.576 0 10.1 4.589 10.1 10.246 0 4.295-3.495 8.87-7.724 9.804-2.875.633-6.198.14-8.544-1.695-2.468-1.93-3.934-4.964-3.934-8.109"/><path fill="#FEFEFE" d="M108.548 6.099s-5.119-.37-9.626 2.862l-6.73-6.944 9.158-3.26 8.175-1.171.445 7.41-1.422 1.103z"/><path fill="#0085C9" stroke="#000" stroke-width="1.5" d="M125.501 24.945c2.659.2 5.179-.417 6.937-2.361.852-.944 1.344-2.214 1.47-3.538.127-1.357-.13-2.762-.745-3.903-1.109-2.053-2.906-2.763-4.817-3.353l-.543-.166c-1.09-.333-2.19-.676-3.11-1.407-2.15-1.703-2.655-3.883-3.05-6.21l-.1-.606c-.114-.707-.182-1.13-.258-1.558-.461-2.609-1.736-4.439-3.487-5.658-1.96-1.364-4.545-1.953-7.3-1.953-2.262 0-4.317.341-6.45 1.043l-2.187.96c-.112.453-.148.711-.113 1.65.072 1.95.924 4.598 2.384 6.588 1.16 1.581 2.69 2.729 4.473 2.928 1.504 1.757 2.175 3.958 2.858 6.126.972 3.083 1.975 6.09 4.804 8.03 2.254 1.545 5.845 3.133 9.234 3.388z"/><path fill="#FEFEFE" d="M67.563 5.507c-.386.007-.776.002-1.148.051-8.874 1.15-15.779 7.27-21.787 13.28-1.734 1.734-3.266 2.929-5.77 3.084-4.665.292-6.769-5.522-4.897-9.14C37.02 6.87 42.907 1.926 48.011-2.261 52.943-6.309 58.9-8.984 65.46-8.637c1.858.098 3.691.37 5.509.746-2.049 1.504-3.603 3.712-4.162 6.15-.42 1.822-.189 4.734.757 7.248"/><path fill="#0085C9" d="M80.15-6.133c4.407 1.33 9.05 2.521 13.265 4.426 3.128 1.414 7.408 2.831 9.667 5.654.694.87 1.166 1.892 1.277 3.105.549 6.131-6.83 9.344-11.331 7.772-4.338-1.514-8.438-3.653-12.67-5.442-3.613-1.526-8.537-3.864-12.744-3.675-.86-2.636-1.012-5.71-.56-7.647.606-2.594 2.17-4.968 4.2-6.61 3.012.603 5.968 1.531 8.896 2.417"/><path stroke="#000" stroke-width="1.5" d="M33.961 12.782c-1.872 3.618.232 9.432 4.897 9.14 2.504-.155 4.036-1.35 5.77-3.084 6.008-6.01 12.913-12.13 21.787-13.28.08-.01.16-.018.24-.024l.896-.026.063.2c4.062-.184 8.792 1.99 12.365 3.513l.378.161c1.154.488 2.299 1.002 3.441 1.522l2.284 1.043c2.284 1.04 4.58 2.051 6.946 2.877 4.501 1.572 11.88-1.641 11.33-7.772-.11-1.213-.582-2.235-1.276-3.105-2.26-2.823-6.539-4.24-9.667-5.654C89.2-3.612 84.557-4.804 80.15-6.133c-.756-.23-1.515-.46-2.276-.689l1.744-2.911H67.94l-.902 1.22a31.318 31.318 0 0 0-1.58-.124c-6.56-.347-12.516 2.328-17.448 6.376-5.104 4.187-10.992 9.132-14.05 15.043z"/></g></svg>